<svg width="14" height="12" viewBox="0 0 14 12" fill="none" xmlns="http://www.w3.org/2000/svg">
<path d="M3.39672 1.54045C3.39655 1.88124 3.2587 2.20799 3.01349 2.44884C2.76827 2.68969 2.4358 2.82491 2.08919 2.82474C1.74258 2.82456 1.41024 2.68903 1.16527 2.44793C0.920309 2.20684 0.782786 1.87995 0.782959 1.53917C0.783132 1.19838 0.920988 0.871625 1.1662 0.630775C1.41141 0.389925 1.74389 0.254713 2.0905 0.254883C2.4371 0.255053 2.76944 0.390593 3.01441 0.631683C3.25938 0.872774 3.3969 1.19967 3.39672 1.54045ZM3.43593 3.77622H0.822166V11.8199H3.43593V3.77622ZM7.56568 3.77622H4.96498V11.8199H7.53954V7.59888C7.53954 5.24746 10.6565 5.02903 10.6565 7.59888V11.8199H13.2376V6.72513C13.2376 2.76113 8.62426 2.9089 7.53954 4.85556L7.56568 3.77622Z" fill="black"/>
</svg>
