<svg width="13" height="13" viewBox="0 0 13 13" fill="none" xmlns="http://www.w3.org/2000/svg">
<path d="M6.58508 0.254883C8.27704 0.254883 8.48815 0.26111 9.15198 0.292247C9.81518 0.323383 10.2667 0.427379 10.664 0.581816C11.075 0.739989 11.4212 0.954208 11.7674 1.29982C12.0841 1.61112 12.3291 1.98768 12.4854 2.4033C12.6393 2.79998 12.7439 3.25208 12.775 3.91529C12.8043 4.57912 12.8124 4.79022 12.8124 6.48218C12.8124 8.17414 12.8062 8.38524 12.775 9.04907C12.7439 9.71228 12.6393 10.1638 12.4854 10.5611C12.3296 10.9769 12.0845 11.3536 11.7674 11.6645C11.4561 11.9811 11.0795 12.2261 10.664 12.3825C10.2673 12.5364 9.81518 12.641 9.15198 12.6721C8.48815 12.7014 8.27704 12.7095 6.58508 12.7095C4.89313 12.7095 4.68202 12.7032 4.01819 12.6721C3.35499 12.641 2.90351 12.5364 2.50621 12.3825C2.09042 12.2265 1.7138 11.9815 1.40273 11.6645C1.08601 11.3533 0.840983 10.9767 0.684721 10.5611C0.530284 10.1644 0.426288 9.71228 0.395152 9.04907C0.365884 8.38524 0.357788 8.17414 0.357788 6.48218C0.357788 4.79022 0.364015 4.57912 0.395152 3.91529C0.426288 3.25146 0.530284 2.8006 0.684721 2.4033C0.840551 1.98743 1.08564 1.61077 1.40273 1.29982C1.71389 0.982998 2.09049 0.737952 2.50621 0.581816C2.90351 0.427379 3.35436 0.323383 4.01819 0.292247C4.68202 0.262978 4.89313 0.254883 6.58508 0.254883ZM6.58508 3.36853C5.75929 3.36853 4.96732 3.69657 4.3834 4.2805C3.79948 4.86442 3.47144 5.65639 3.47144 6.48218C3.47144 7.30797 3.79948 8.09994 4.3834 8.68386C4.96732 9.26778 5.75929 9.59583 6.58508 9.59583C7.41087 9.59583 8.20284 9.26778 8.78677 8.68386C9.37069 8.09994 9.69873 7.30797 9.69873 6.48218C9.69873 5.65639 9.37069 4.86442 8.78677 4.2805C8.20284 3.69657 7.41087 3.36853 6.58508 3.36853ZM10.6328 3.21285C10.6328 3.0064 10.5508 2.80841 10.4048 2.66243C10.2589 2.51645 10.0609 2.43444 9.85441 2.43444C9.64797 2.43444 9.44997 2.51645 9.30399 2.66243C9.15801 2.80841 9.076 3.0064 9.076 3.21285C9.076 3.4193 9.15801 3.61729 9.30399 3.76327C9.44997 3.90925 9.64797 3.99126 9.85441 3.99126C10.0609 3.99126 10.2589 3.90925 10.4048 3.76327C10.5508 3.61729 10.6328 3.4193 10.6328 3.21285ZM6.58508 4.61399C7.08056 4.61399 7.55574 4.81082 7.90609 5.16117C8.25645 5.51152 8.45327 5.9867 8.45327 6.48218C8.45327 6.97765 8.25645 7.45283 7.90609 7.80319C7.55574 8.15354 7.08056 8.35037 6.58508 8.35037C6.08961 8.35037 5.61443 8.15354 5.26407 7.80319C4.91372 7.45283 4.7169 6.97765 4.7169 6.48218C4.7169 5.9867 4.91372 5.51152 5.26407 5.16117C5.61443 4.81082 6.08961 4.61399 6.58508 4.61399Z" fill="black"/>
</svg>
