<svg width="13" height="11" viewBox="0 0 13 11" fill="none" xmlns="http://www.w3.org/2000/svg">
<path d="M5.96881 2.92295C5.9795 2.34244 6.16484 1.77791 6.50162 1.30006C6.8384 0.822216 7.31166 0.452281 7.86212 0.23658C8.41259 0.0208794 9.01581 -0.0310005 9.59624 0.0874367C10.1767 0.205874 10.7085 0.489364 11.1252 0.902411C11.7028 0.973823 12.2871 0.834698 12.7667 0.511532C12.5607 1.49914 12.4592 1.92795 12.0199 2.51773C12.0199 7.11992 9.13133 9.35788 6.20027 9.93055C4.19033 10.3233 1.26824 9.67844 0.430725 8.82036C0.855859 8.78798 2.59182 8.60526 3.59561 7.88688C2.74771 7.34335 -0.629276 5.39775 1.58851 0.168299C2.4334 1.21133 3.51776 2.04435 4.75339 2.59961C5.13547 2.77616 5.54619 2.88576 5.96692 2.92341L5.96881 2.92295Z" fill="black"/>
</svg>
